<svg width="49" height="57" viewBox="0 0 49 57" fill="none" xmlns="http://www.w3.org/2000/svg">
<path d="M24.256 28.325C24.256 28.325 27.365 34.447 33.511 37.995C39.657 41.544 46.513 41.175 46.513 41.175C46.513 41.175 43.405 35.052 37.259 31.504C31.113 27.956 24.256 28.325 24.256 28.325ZM24.256 28.325C24.256 28.325 17.4 27.956 11.254 31.504C5.108 35.052 2 41.175 2 41.175C2 41.175 8.856 41.544 15.002 37.995C21.148 34.447 24.256 28.325 24.256 28.325ZM24.256 28.112C24.256 28.112 21.148 21.99 15.002 18.442C8.856 14.893 2 15.263 2 15.263C2 15.263 5.108 21.385 11.254 24.934C17.4 28.482 24.256 28.112 24.256 28.112ZM24.256 28.112C24.256 28.112 31.113 28.482 37.259 24.934C43.405 21.385 46.513 15.263 46.513 15.263C46.513 15.263 39.657 14.893 33.511 18.442C27.365 21.99 24.256 28.112 24.256 28.112ZM28.004 41.587C28.004 48.684 24.256 54.437 24.256 54.437C24.256 54.437 20.508 48.684 20.508 41.587C20.508 34.49 24.256 28.736 24.256 28.736C24.256 28.736 28.004 34.49 28.004 41.587ZM20.508 14.85C20.508 7.75401 24.256 2 24.256 2C24.256 2 28.004 7.75401 28.004 14.85C28.004 21.947 24.256 27.7 24.256 27.7C24.256 27.7 20.508 21.947 20.508 14.85Z" stroke="white" stroke-width="2" stroke-miterlimit="10"/>
</svg>
