<svg xmlns="http://www.w3.org/2000/svg" width="14" height="14" viewBox="0 0 14 14" fill="none">
<path d="M6.97573 1.34987C8.78006 1.34987 8.99374 1.35778 9.70334 1.38944C10.3628 1.41846 10.7189 1.52925 10.9563 1.62158C11.2703 1.74292 11.4971 1.89064 11.7319 2.12542C11.9693 2.36283 12.1144 2.58705 12.2357 2.90097C12.3281 3.13838 12.4389 3.49713 12.4679 4.15398C12.4995 4.86621 12.5074 5.07989 12.5074 6.88158C12.5074 8.68592 12.4995 8.89959 12.4679 9.60919C12.4389 10.2687 12.3281 10.6248 12.2357 10.8622C12.1144 11.1761 11.9667 11.403 11.7319 11.6378C11.4945 11.8752 11.2703 12.0203 10.9563 12.1416C10.7189 12.2339 10.3602 12.3447 9.70334 12.3737C8.9911 12.4054 8.77743 12.4133 6.97573 12.4133C5.17139 12.4133 4.95772 12.4054 4.24812 12.3737C3.58864 12.3447 3.23252 12.2339 2.99511 12.1416C2.6812 12.0203 2.45434 11.8725 2.21956 11.6378C1.98215 11.4003 1.83706 11.1761 1.71572 10.8622C1.62339 10.6248 1.5126 10.266 1.48358 9.60919C1.45193 8.89696 1.44401 8.68328 1.44401 6.88158C1.44401 5.07725 1.45193 4.86358 1.48358 4.15398C1.5126 3.4945 1.62339 3.13838 1.71572 2.90097C1.83706 2.58705 1.98479 2.36019 2.21956 2.12542C2.45697 1.888 2.6812 1.74292 2.99511 1.62158C3.23252 1.52925 3.59128 1.41846 4.24812 1.38944C4.95772 1.35778 5.17139 1.34987 6.97573 1.34987ZM6.97573 0.133789C5.14237 0.133789 4.91288 0.141703 4.19272 0.173358C3.47521 0.205013 2.98192 0.321081 2.55458 0.48727C2.10877 0.661373 1.73155 0.890872 1.35696 1.26809C0.979739 1.64268 0.75024 2.0199 0.576137 2.46307C0.409948 2.89305 0.29388 3.3837 0.262225 4.10122C0.23057 4.82401 0.222656 5.05351 0.222656 6.88686C0.222656 8.72021 0.23057 8.94971 0.262225 9.66986C0.29388 10.3874 0.409948 10.8807 0.576137 11.308C0.75024 11.7538 0.979739 12.131 1.35696 12.5056C1.73155 12.8802 2.10877 13.1123 2.55194 13.2838C2.98192 13.45 3.47257 13.5661 4.19009 13.5977C4.91024 13.6294 5.13974 13.6373 6.97309 13.6373C8.80644 13.6373 9.03594 13.6294 9.75609 13.5977C10.4736 13.5661 10.9669 13.45 11.3942 13.2838C11.8374 13.1123 12.2146 12.8802 12.5892 12.5056C12.9638 12.131 13.1959 11.7538 13.3674 11.3107C13.5336 10.8807 13.6497 10.39 13.6813 9.6725C13.713 8.95235 13.7209 8.72285 13.7209 6.8895C13.7209 5.05615 13.713 4.82665 13.6813 4.10649C13.6497 3.38898 13.5336 2.89569 13.3674 2.46835C13.2012 2.0199 12.9717 1.64268 12.5945 1.26809C12.2199 0.89351 11.8427 0.661373 11.3995 0.489908C10.9695 0.323719 10.4789 0.207651 9.76137 0.175996C9.03858 0.141703 8.80908 0.133789 6.97573 0.133789Z" fill="#243054"/>
<path d="M6.9757 3.41821C5.06057 3.41821 3.50684 4.97195 3.50684 6.88708C3.50684 8.8022 5.06057 10.3559 6.9757 10.3559C8.89083 10.3559 10.4446 8.8022 10.4446 6.88708C10.4446 4.97195 8.89083 3.41821 6.9757 3.41821ZM6.9757 9.13722C5.73324 9.13722 4.72555 8.12954 4.72555 6.88708C4.72555 5.64462 5.73324 4.63693 6.9757 4.63693C8.21816 4.63693 9.22584 5.64462 9.22584 6.88708C9.22584 8.12954 8.21816 9.13722 6.9757 9.13722Z" fill="#243054"/>
<path d="M11.3917 3.28079C11.3917 3.72924 11.0276 4.09063 10.5818 4.09063C10.1334 4.09063 9.77197 3.7266 9.77197 3.28079C9.77197 2.83234 10.136 2.47095 10.5818 2.47095C11.0276 2.47095 11.3917 2.83498 11.3917 3.28079Z" fill="#243054"/>
</svg>