<svg width="14" height="14" viewBox="0 0 14 14" fill="none" xmlns="http://www.w3.org/2000/svg">
<path d="M12.7454 0.133789H1.23615C0.684822 0.133789 0.239014 0.569046 0.239014 1.10718V12.6639C0.239014 13.202 0.684822 13.6399 1.23615 13.6399H12.7454C13.2967 13.6399 13.7452 13.202 13.7452 12.6665V1.10718C13.7452 0.569046 13.2967 0.133789 12.7454 0.133789ZM4.24601 11.643H2.24119V5.19595H4.24601V11.643ZM3.2436 4.31753C2.59995 4.31753 2.08028 3.79786 2.08028 3.15684C2.08028 2.51583 2.59995 1.99616 3.2436 1.99616C3.88462 1.99616 4.40429 2.51583 4.40429 3.15684C4.40429 3.79522 3.88462 4.31753 3.2436 4.31753ZM11.7483 11.643H9.74607V8.50918C9.74607 7.76265 9.73288 6.79981 8.70409 6.79981C7.66212 6.79981 7.50384 7.61493 7.50384 8.45642V11.643H5.5043V5.19595H7.4247V6.07702H7.45108C7.71751 5.57054 8.37172 5.03504 9.34511 5.03504C11.3737 5.03504 11.7483 6.36983 11.7483 8.10558V11.643Z" fill="#243054"/>
</svg>
