<svg width="92" height="109" viewBox="0 0 92 109" fill="none" xmlns="http://www.w3.org/2000/svg">
<path d="M45.9201 54.8043C45.9201 54.8043 52.0959 66.9462 64.3044 73.9831C76.513 81.0219 90.1318 80.2901 90.1318 80.2901C90.1318 80.2901 83.958 68.1461 71.7495 61.1092C59.541 54.0724 45.9201 54.8043 45.9201 54.8043ZM45.9201 54.8043C45.9201 54.8043 32.3013 54.0724 20.0927 61.1092C7.88423 68.1461 1.71045 80.2901 1.71045 80.2901C1.71045 80.2901 15.3293 81.0219 27.5378 73.9831C39.7464 66.9462 45.9201 54.8043 45.9201 54.8043ZM45.9201 54.3818C45.9201 54.3818 39.7464 42.2398 27.5378 35.203C15.3293 28.1641 1.71045 28.898 1.71045 28.898C1.71045 28.898 7.88423 41.0399 20.0927 48.0788C32.3013 55.1156 45.9201 54.3818 45.9201 54.3818ZM45.9201 54.3818C45.9201 54.3818 59.541 55.1156 71.7495 48.0788C83.958 41.0399 90.1318 28.898 90.1318 28.898C90.1318 28.898 76.513 28.1641 64.3044 35.203C52.0959 42.2398 45.9201 54.3818 45.9201 54.3818ZM53.3652 81.1072C53.3652 95.1829 45.9201 106.593 45.9201 106.593C45.9201 106.593 38.475 95.1829 38.475 81.1072C38.475 67.0315 45.9201 55.6194 45.9201 55.6194C45.9201 55.6194 53.3652 67.0315 53.3652 81.1072ZM38.475 28.0788C38.475 14.0051 45.9201 2.59302 45.9201 2.59302C45.9201 2.59302 53.3652 14.0051 53.3652 28.0788C53.3652 42.1546 45.9201 53.5647 45.9201 53.5647C45.9201 53.5647 38.475 42.1546 38.475 28.0788Z" stroke="white" stroke-width="2" stroke-miterlimit="10" style="mix-blend-mode:color-dodge"/>
</svg>
