<svg width="51" height="50" viewBox="0 0 51 50" fill="none" xmlns="http://www.w3.org/2000/svg">
<path d="M25.4838 49.9546C11.694 49.9546 0.515137 38.7757 0.515137 24.9859C0.515137 11.196 11.694 0.01717 25.4838 0.01717C39.2737 0.01717 50.4526 11.196 50.4526 24.9859C50.4379 38.7695 39.2676 49.9399 25.4838 49.9546ZM35.9991 24.1903C35.8263 23.8436 35.5453 23.5625 35.1985 23.3896V23.3807L20.9306 16.2468C20.0495 15.8065 18.9784 16.1638 18.538 17.045C18.4128 17.2955 18.3483 17.572 18.3499 17.8519V32.1197C18.3495 33.1048 19.1475 33.9036 20.1326 33.9041C20.4096 33.9042 20.6829 33.8398 20.9306 33.716L35.1985 26.582C36.08 26.1427 36.4386 25.0719 35.9991 24.1903Z" fill="#E0E0E0"/>
</svg>
