<svg width="14" height="12" viewBox="0 0 14 12" fill="none" xmlns="http://www.w3.org/2000/svg">
<path d="M4.45519 11.3738C9.5506 11.3738 12.3383 7.15129 12.3383 3.49065C12.3383 3.37194 12.3357 3.2506 12.3304 3.13189C12.8727 2.73971 13.3407 2.25393 13.7124 1.69739C13.2074 1.9221 12.6711 2.06886 12.122 2.13265C12.7002 1.78609 13.1331 1.24166 13.3405 0.60028C12.7966 0.922622 12.2018 1.15001 11.5815 1.27269C11.1636 0.828643 10.6111 0.534635 10.0093 0.436115C9.40757 0.337596 8.79012 0.440054 8.25244 0.727649C7.71475 1.01524 7.28678 1.47195 7.03469 2.02717C6.78261 2.58239 6.72044 3.20519 6.85781 3.79928C5.75647 3.74402 4.67905 3.45792 3.69538 2.95954C2.7117 2.46116 1.84375 1.76162 1.14777 0.906279C0.794041 1.51615 0.685799 2.23783 0.845044 2.92464C1.00429 3.61146 1.41907 4.21187 2.0051 4.60385C1.56515 4.58988 1.13483 4.47143 0.74971 4.25828V4.29257C0.749316 4.93259 0.970576 5.55299 1.37588 6.04832C1.78118 6.54365 2.34552 6.88333 2.97295 7.00963C2.5654 7.12114 2.13767 7.13738 1.72284 7.05711C1.89989 7.60753 2.24436 8.08894 2.70818 8.43416C3.172 8.77938 3.73203 8.97118 4.31011 8.98279C3.32871 9.7537 2.11639 10.1718 0.868416 10.1699C0.647098 10.1695 0.425998 10.156 0.206299 10.1292C1.47411 10.9426 2.94891 11.3746 4.45519 11.3738Z" fill="#243054"/>
</svg>
